# xmcd
#
# Track frame offsets: 
#        150
#        14906
#        27462
#        47793
#        69623
#        83838
#        104752
#        119402
#        137787
#        159186
#        174965
#        205083
#
# Disc length: 2827 seconds
#
# Revision: 3
# Processed by: cddbd v1.5.1PL0 Copyright (c) Steve Scherf et al.
# Submitted via: ExactAudioCopy v0.90b4
#
DISCID=a80b090c
DTITLE=The Margarets - What Kept You?
DYEAR=2002
DGENRE=Rock
TTITLE0=Harbour Smiles
TTITLE1=Rubber Rubbish
TTITLE2=Audrey Hepburn Star Embrace
TTITLE3=How Can Someone With Such Beautiful Legs Get Feet So Cold?
TTITLE4=Alain Delon
TTITLE5=67
TTITLE6=Spoonful Of Love
TTITLE7=Doors Were Open
TTITLE8=Last Night On Earth
TTITLE9=Sound Of Summer
TTITLE10=Memory Lane
TTITLE11=In Your Endless Night Of Darkness
EXTD=
EXTT0=
EXTT1=
EXTT2=
EXTT3=
EXTT4=
EXTT5=
EXTT6=
EXTT7=
EXTT8=
EXTT9=
EXTT10=
EXTT11=
PLAYORDER=
